<?xml version="1.0" standalone="no"?>
<!DOCTYPE svg PUBLIC "-//W3C//DTD SVG 20010904//EN"
 "http://www.w3.org/TR/2001/REC-SVG-20010904/DTD/svg10.dtd">
<svg version="1.0" xmlns="http://www.w3.org/2000/svg"
 width="246.120083pt" height="321.002906pt" viewBox="0 0 246.120083 321.002906"
 preserveAspectRatio="xMidYMid meet">
<metadata>
Created by potrace 1.12, written by Peter Selinger 2001-2015
</metadata>
<g transform="translate(-21.036980,336.502906) scale(0.100000,-0.100000)"
fill="#fff" stroke="none">
<path d="M1058 3359 c-119 -14 -295 -62 -416 -113 -321 -136 -483 -348 -417
-545 18 -56 38 -72 64 -52 41 30 145 73 212 88 87 19 367 23 612 9 l157 -9 0
-67 c0 -59 -3 -70 -22 -83 -42 -27 -156 -145 -204 -209 -86 -117 -155 -287
-185 -458 -17 -95 -17 -379 -1 -485 21 -133 53 -286 74 -352 25 -82 44 -83 92
-5 19 31 40 64 45 72 8 13 11 13 26 -2 16 -15 15 -23 -24 -140 -75 -227 -114
-443 -115 -648 l-1 -125 79 -40 c76 -39 81 -40 180 -40 98 0 105 2 179 38 114
56 129 94 152 397 21 270 49 456 94 633 22 84 44 165 50 180 l11 28 460 -7
c252 -3 471 -4 485 0 36 9 35 53 -2 62 -14 4 -196 4 -405 0 -274 -5 -378 -4
-378 4 0 6 11 33 25 60 38 74 81 212 102 320 15 82 17 151 16 515 -1 443 -9
541 -51 665 -81 235 -248 339 -479 301 -52 -9 -81 -10 -110 -2 -56 16 -216 21
-305 10z m287 -70 c91 -23 91 -24 105 -105 17 -97 9 -239 -16 -290 -17 -36
-26 -41 -103 -67 -102 -34 -125 -36 -360 -18 -181 13 -297 11 -431 -10 -73
-11 -181 -44 -222 -67 -34 -20 -40 -14 -45 45 -15 152 142 309 418 422 52 21
105 41 119 44 14 3 45 11 70 18 140 37 377 51 465 28z m383 -24 c89 -48 140
-122 180 -260 34 -115 41 -231 41 -624 1 -417 -7 -502 -60 -668 -17 -54 -47
-128 -67 -165 l-36 -68 -252 0 -252 0 -66 -133 c-36 -73 -66 -139 -66 -146 0
-9 -8 -11 -22 -7 -13 3 -26 6 -30 6 -14 0 -8 27 18 86 105 237 164 492 164
709 0 142 -18 251 -61 377 l-31 92 36 33 c20 18 39 33 44 33 5 0 19 -23 32
-52 29 -64 96 -133 158 -161 37 -17 66 -22 137 -22 78 0 97 4 146 28 31 15 75
47 97 71 50 54 57 90 50 270 -5 112 -10 144 -37 225 -53 157 -156 287 -288
363 -29 16 -53 35 -53 40 0 7 30 9 83 6 67 -3 92 -10 135 -33z m-141 -98 c172
-127 248 -300 248 -564 l0 -132 -40 -41 c-132 -136 -351 -106 -437 59 -24 46
-28 65 -28 135 0 44 3 90 6 101 3 11 32 37 64 57 32 20 66 47 74 61 30 45 49
164 42 270 -3 55 -2 97 3 97 5 0 35 -20 68 -43z m-426 -794 c6 -16 22 -71 36
-123 36 -134 37 -355 4 -515 -37 -177 -107 -378 -185 -532 l-33 -66 -22 89
c-35 147 -51 285 -51 446 0 250 35 407 132 588 49 93 83 140 100 140 5 0 13
-12 19 -27z m469 -952 c0 -5 -9 -37 -19 -72 -68 -223 -104 -448 -126 -784 -9
-123 -30 -240 -49 -271 -9 -12 -41 -35 -73 -51 -51 -24 -69 -28 -148 -28 -79
0 -97 4 -147 28 l-58 28 0 67 c1 276 95 650 239 949 l70 143 155 0 c86 0 156
-4 156 -9z"/>
<path d="M1573 3058 c-28 -36 -15 -80 26 -91 45 -11 82 58 49 91 -16 16 -63
15 -75 0z"/>
<path d="M2480 1744 c-81 -25 -160 -123 -160 -199 0 -33 2 -35 32 -35 81 0
177 83 204 177 22 77 12 85 -76 57z"/>
<path d="M2147 1383 c-14 -13 -6 -109 12 -148 31 -70 144 -156 169 -130 14 14
6 120 -12 155 -42 81 -140 153 -169 123z"/>
</g>
</svg>
